<svg height="464pt" viewBox="-80 0 464 464" width="464pt" xmlns="http://www.w3.org/2000/svg"><path d="m304 144-152-104-152 104v-40l152-104 152 104zm0 0" fill="#e9686a"/><path d="m304 144-152-104-152 104v320h304zm0 0" fill="#f9cc91"/><path d="m32 160h240v112h-240zm0 0" fill="#36afad"/><path d="m248 200v-16h-8v-8h-16v8h-8v40h16v8h-16v16h8v8h16v-8h8v-40h-16v-8zm0 0" fill="#fdbd40"/><g fill="#e9686a"><path d="m32 304h48v48h-48zm0 0"/><path d="m112 304h48v48h-48zm0 0"/><path d="m32 384h48v48h-48zm0 0"/><path d="m112 384h48v48h-48zm0 0"/><path d="m192 304h80v128h-80zm0 0"/></g><path d="m176 104c0 13.253906-10.746094 24-24 24s-24-10.746094-24-24 10.746094-24 24-24 24 10.746094 24 24zm0 0" fill="#fff"/><path d="m64 232c-4.417969 0-8-3.582031-8-8v-32c0-4.417969 3.582031-8 8-8h40c4.417969 0 8 3.582031 8 8s-3.582031 8-8 8h-32v24c0 4.417969-3.582031 8-8 8zm0 0" fill="#fff"/><path d="m152 200h-16c-4.417969 0-8-3.582031-8-8s3.582031-8 8-8h16c4.417969 0 8 3.582031 8 8s-3.582031 8-8 8zm0 0" fill="#fff"/><path d="m240 376c-4.417969 0-8-3.582031-8-8v-24h-8c-4.417969 0-8-3.582031-8-8s3.582031-8 8-8h16c4.417969 0 8 3.582031 8 8v32c0 4.417969-3.582031 8-8 8zm0 0" fill="#fff"/></svg>